<svg width="2732" height="2732" viewBox="0 0 2732 2732" fill="none" xmlns="http://www.w3.org/2000/svg">
<rect width="2732" height="2732" fill="#292829"/>
<path d="M1275.98 1654.6V1611.62H1290.48V1643.37H1309.88V1654.6H1275.98ZM1318.8 1654.6V1611.62H1333.29V1654.6H1318.8ZM1358.69 1654.6L1340.51 1611.62H1356.11L1370.91 1647.91H1361.64L1376.87 1611.62H1391.12L1372.94 1654.6H1358.69ZM1410.74 1627.58H1429.9V1638.02H1410.74V1627.58ZM1411.72 1643.67H1433.22V1654.6H1397.47V1611.62H1432.42V1622.55H1411.72V1643.67ZM1444.32 1638.15L1441.56 1611.62H1458.14L1455.38 1638.15H1444.32ZM1449.85 1655.22C1447.47 1655.22 1445.53 1654.5 1444.01 1653.07C1442.5 1651.6 1441.74 1649.86 1441.74 1647.85C1441.74 1645.8 1442.5 1644.08 1444.01 1642.69C1445.53 1641.3 1447.47 1640.6 1449.85 1640.6C1452.26 1640.6 1454.21 1641.3 1455.68 1642.69C1457.2 1644.08 1457.96 1645.8 1457.96 1647.85C1457.96 1649.86 1457.2 1651.6 1455.68 1653.07C1454.21 1654.5 1452.26 1655.22 1449.85 1655.22Z" fill="white"/>
<path d="M1426 1208.98L1306 1088V1260.02L1426 1381V1208.98Z" fill="#CC5732"/>
<path d="M1186 1207.71V1533H1305.94V1260.03L1306 1260.09V1088.06L1305.94 1088L1186 1207.71Z" fill="#F2683D"/>
<path d="M1426.06 1088V1360.97L1426 1360.91V1532.94L1426.06 1533L1546 1413.29V1088H1426.06Z" fill="white"/>
</svg>
